<svg width="134" height="155" viewBox="0 0 134 155" fill="none" xmlns="http://www.w3.org/2000/svg">
<path d="M122.937 -24.4346C132.398 -3.67091 135.573 19.6608 133.196 43.1055C130.7 66.4593 122.863 89.8974 108.254 107.62C93.5259 125.252 72.1166 137.049 49.4426 145.058C26.6491 152.976 2.68179 156.986 -20.1273 153.773C-42.9363 150.561 -64.4962 140.006 -88.3648 133.727C-112.353 127.356 -138.649 125.26 -150.095 109.584C-161.66 93.8159 -158.584 64.4958 -155.203 38.9878C-151.942 13.3891 -148.586 -8.36899 -139.905 -27.9614C-131.224 -47.5538 -117.217 -64.9806 -100.508 -78.2792C-83.7081 -91.6972 -64.2055 -100.987 -43.1187 -104.926C-22.0319 -108.865 0.63913 -107.454 23.1472 -104.093C45.6552 -100.733 67.5226 -95.7866 85.8674 -84.4737C104.212 -73.1609 119.273 -55.2998 122.937 -24.4346Z" fill="#2D5016"/>
</svg>
