<svg width="286" height="300" viewBox="0 0 286 300" fill="none" xmlns="http://www.w3.org/2000/svg">
<g opacity="0.1">
<g clip-path="url(#clip0_131_2454)">
<path d="M217.05 35.4003C237.15 46.2003 253.8 62.8503 266.1 82.9503C278.25 103.05 286.2 126.45 285.3 149.4C284.25 172.35 274.35 194.7 261.15 214.8C247.8 234.9 231.15 252.6 211.05 263.85C190.95 275.1 167.4 279.75 144.6 289.2C121.65 298.65 99.4501 312.9 80.8501 307.35C62.1001 301.8 46.8001 276.6 34.0501 254.25C21.1501 231.9 10.6501 212.55 5.70008 191.7C0.750079 170.85 1.35008 148.5 6.60008 127.8C11.8501 106.95 21.7501 87.7503 36.1501 71.8503C50.5501 55.9503 69.4501 43.3503 89.4001 32.4003C109.35 21.4503 129.75 12.1503 151.2 10.0503C172.65 7.95034 195.45 13.0503 217.05 35.4003Z" fill="#2D5016"/>
</g>
</g>
<defs>
<clipPath id="clip0_131_2454">
<rect width="300" height="300" fill="white"/>
</clipPath>
</defs>
</svg>
