<svg width="139" height="268" viewBox="0 0 139 268" fill="none" xmlns="http://www.w3.org/2000/svg">
<path d="M303.077 130.542C305.411 153.24 300.966 176.363 291.226 197.821C281.401 219.154 266.489 238.861 246.985 250.99C227.397 262.994 203.341 267.335 179.296 267.682C155.168 267.905 131.175 264.05 110.587 253.721C89.9987 243.391 72.939 226.504 52.3264 212.929C31.6296 199.231 7.37979 188.846 1.54093 170.335C-4.38207 151.699 7.89758 124.897 19.2482 101.805C30.5147 78.5887 40.6439 59.042 55.1281 43.2486C69.6123 27.4551 88.4515 15.4148 108.533 8.14966C128.739 0.800342 150.187 -1.77389 171.427 1.22833C192.668 4.23055 213.701 12.8092 233.956 23.1827C254.212 33.5562 273.354 45.2277 287.125 61.8073C300.896 78.3869 309.463 100.123 303.077 130.542Z" fill="#2D5016"/>
</svg>
