<svg width="154" height="32" viewBox="0 0 154 32" fill="none" xmlns="http://www.w3.org/2000/svg">
<path d="M3 26V16.85C2.15 16.6167 1.4375 16.15 0.8625 15.45C0.2875 14.75 0 13.9333 0 13V6H2V13H3V6H5V13H6V6H8V13C8 13.9333 7.7125 14.75 7.1375 15.45C6.5625 16.15 5.85 16.6167 5 16.85V26H3ZM13 26V18H10V11C10 9.61667 10.4875 8.4375 11.4625 7.4625C12.4375 6.4875 13.6167 6 15 6V26H13Z" fill="white"/>
<path d="M24.125 25V7.53906H29.2812L33.4414 14.3945C33.8008 14.9883 34.1367 15.582 34.4492 16.1758C34.7617 16.7695 35.0645 17.4238 35.3574 18.1387C35.6504 18.8535 35.9492 19.6875 36.2539 20.6406H35.8438C35.8047 20.0078 35.7559 19.2754 35.6973 18.4434C35.6387 17.6113 35.5859 16.791 35.5391 15.9824C35.4922 15.1738 35.4688 14.4922 35.4688 13.9375V7.53906H40.3438V25H35.1875L31.3086 18.625C30.8711 17.8984 30.4863 17.2207 30.1543 16.5918C29.8223 15.9629 29.502 15.2969 29.1934 14.5938C28.8848 13.8906 28.5312 13.0781 28.1328 12.1562H28.625C28.6875 12.9766 28.748 13.793 28.8066 14.6055C28.8652 15.418 28.9121 16.1719 28.9473 16.8672C28.9824 17.5625 29 18.1484 29 18.625V25H24.125ZM40.8078 25L46.468 7.53906H52.9367L58.8078 25H53.4406L51.4133 18.2266C50.9758 16.7578 50.5656 15.2324 50.1828 13.6504C49.8 12.0684 49.4367 10.4961 49.093 8.93359H50.1711C49.843 10.4961 49.5109 12.0684 49.175 13.6504C48.8391 15.2324 48.4602 16.7578 48.0383 18.2266L46.1047 25H40.8078ZM45.0031 21.6484V18.1094H54.6125V21.6484H45.0031ZM64.0062 7.53906V25H59.2719V7.53906H64.0062ZM70.7984 25.2344C68.7516 25.2344 67.1734 24.7422 66.0641 23.7578C64.9547 22.7734 64.4 21.3672 64.4 19.5391V18.4492H69.1344V19.6328C69.1344 20.2734 69.2789 20.7539 69.568 21.0742C69.857 21.3945 70.2672 21.5547 70.7984 21.5547C71.3297 21.5547 71.7359 21.3945 72.0172 21.0742C72.2984 20.7539 72.4391 20.2656 72.4391 19.6094V7.53906H77.1031V19.5156C77.1031 21.3516 76.5582 22.7637 75.4684 23.752C74.3785 24.7402 72.8219 25.2344 70.7984 25.2344ZM77.0984 25L82.7586 7.53906H89.2273L95.0984 25H89.7313L87.7039 18.2266C87.2664 16.7578 86.8563 15.2324 86.4734 13.6504C86.0906 12.0684 85.7273 10.4961 85.3836 8.93359H86.4617C86.1336 10.4961 85.8016 12.0684 85.4656 13.6504C85.1297 15.2324 84.7508 16.7578 84.3289 18.2266L82.3953 25H77.0984ZM81.2938 21.6484V18.1094H90.9031V21.6484H81.2938ZM95.5625 25V7.53906H108.148V11.3594H100.297V14.3125H107.492V18.0391H100.297V21.1797H108.102V25H95.5625ZM108.484 25L114.144 7.53906H120.613L126.484 25H121.116L119.089 18.2266C118.652 16.7578 118.241 15.2324 117.859 13.6504C117.476 12.0684 117.113 10.4961 116.769 8.93359H117.847C117.519 10.4961 117.187 12.0684 116.851 13.6504C116.515 15.2324 116.136 16.7578 115.714 18.2266L113.78 25H108.484ZM112.679 21.6484V18.1094H122.288V21.6484H112.679ZM124.264 11.3594V7.53906H139.428V11.3594H134.213V25H129.479V11.3594H124.264ZM146.877 25.2109C145.361 25.2109 144.039 24.9863 142.91 24.5371C141.781 24.0879 140.904 23.3945 140.279 22.457C139.654 21.5195 139.338 20.3203 139.33 18.8594H143.83C143.861 19.3906 143.996 19.8398 144.234 20.207C144.472 20.5742 144.808 20.8516 145.242 21.0391C145.675 21.2266 146.197 21.3203 146.806 21.3203C147.314 21.3203 147.74 21.2578 148.084 21.1328C148.427 21.0078 148.687 20.834 148.863 20.6113C149.039 20.3887 149.127 20.1328 149.127 19.8438C149.127 19.5781 149.043 19.3457 148.875 19.1465C148.707 18.9473 148.431 18.7656 148.048 18.6016C147.666 18.4375 147.15 18.2891 146.502 18.1562L144.744 17.7812C143.205 17.4531 141.992 16.8926 141.105 16.0996C140.218 15.3066 139.775 14.2266 139.775 12.8594C139.775 11.75 140.076 10.7793 140.677 9.94727C141.279 9.11523 142.109 8.4668 143.168 8.00195C144.226 7.53711 145.447 7.30469 146.83 7.30469C148.244 7.30469 149.464 7.54102 150.492 8.01367C151.519 8.48633 152.312 9.15039 152.871 10.0059C153.429 10.8613 153.713 11.8594 153.72 13H149.173C149.134 12.4297 148.925 11.9863 148.546 11.6699C148.168 11.3535 147.595 11.1953 146.83 11.1953C146.345 11.1953 145.947 11.252 145.634 11.3652C145.322 11.4785 145.091 11.6367 144.943 11.8398C144.795 12.043 144.72 12.2734 144.72 12.5312C144.72 12.8047 144.8 13.0449 144.961 13.252C145.121 13.459 145.375 13.6387 145.722 13.791C146.07 13.9434 146.517 14.0781 147.064 14.1953L148.494 14.5C149.455 14.7031 150.281 14.9727 150.972 15.3086C151.664 15.6445 152.23 16.0371 152.671 16.4863C153.113 16.9355 153.437 17.4414 153.644 18.0039C153.851 18.5664 153.955 19.1797 153.955 19.8438C153.955 20.9922 153.671 21.9668 153.105 22.7676C152.539 23.5684 151.728 24.1758 150.673 24.5898C149.619 25.0039 148.353 25.2109 146.877 25.2109Z" fill="white"/>
</svg>
