<svg width="250" height="123" viewBox="0 0 250 123" fill="none" xmlns="http://www.w3.org/2000/svg">
<path d="M0 26.4866C0 155.362 249.626 154.952 249.735 26.571C151.425 57.9038 96.6703 58.028 0 26.4866Z" fill="url(#paint0_linear_462_394)"/>
<path d="M249.735 26.5157C249.735 41.16 193.83 53.0315 124.868 53.0315C55.9051 53.0315 0 41.16 0 26.5157C0 11.8715 55.9051 0 124.868 0C193.83 0 249.735 11.8715 249.735 26.5157Z" fill="#1F3810"/>
<path d="M234.09 26.4574C234.09 39.2651 185.19 49.6477 124.868 49.6477C64.5456 49.6477 15.6449 39.2651 15.6449 26.4574C15.6449 13.6497 64.5456 3.26707 124.868 3.26707C185.19 3.26707 234.09 13.6497 234.09 26.4574Z" fill="#C0602A"/>
<path d="M121.54 22.4902C121.54 28.6283 108.655 33.6041 92.7605 33.6041C76.8659 33.6041 63.9808 28.6283 63.9808 22.4902C63.9808 16.3522 76.8659 11.3764 92.7605 11.3764C108.655 11.3764 121.54 16.3522 121.54 22.4902Z" fill="#D4743A"/>
<path d="M158.784 15.3727C158.784 21.5107 145.899 26.4866 130.005 26.4866C114.11 26.4866 101.225 21.5107 101.225 15.3727C101.225 9.2347 114.11 4.25885 130.005 4.25885C145.899 4.25885 158.784 9.2347 158.784 15.3727Z" fill="#D4743A"/>
<path d="M182.427 34.3917C182.427 40.5297 169.542 45.5056 153.647 45.5056C137.753 45.5056 124.868 40.5297 124.868 34.3917C124.868 28.2537 137.753 23.2778 153.647 23.2778C169.542 23.2778 182.427 28.2537 182.427 34.3917Z" fill="#E08040"/>
<path d="M152.947 22.2569C152.947 23.6263 151.248 24.7364 149.152 24.7364C147.057 24.7364 145.358 23.6263 145.358 22.2569C145.358 20.8875 147.057 19.7774 149.152 19.7774C151.248 19.7774 152.947 20.8875 152.947 22.2569Z" fill="#F0C080"/>
<path d="M149.619 28.966C149.619 30.3354 147.92 31.4455 145.825 31.4455C143.729 31.4455 142.03 30.3354 142.03 28.966C142.03 27.5967 143.729 26.4866 145.825 26.4866C147.92 26.4866 149.619 27.5967 149.619 28.966Z" fill="#F0C080"/>
<path d="M134.441 26.5157C134.441 27.8851 132.743 28.9952 130.647 28.9952C128.551 28.9952 126.852 27.8851 126.852 26.5157C126.852 25.1464 128.551 24.0363 130.647 24.0363C132.743 24.0363 134.441 25.1464 134.441 26.5157Z" fill="#F0C080"/>
<path d="M142.03 20.7984C142.03 22.1677 140.332 23.2778 138.236 23.2778C136.14 23.2778 134.441 22.1677 134.441 20.7984C134.441 19.429 136.14 18.3189 138.236 18.3189C140.332 18.3189 142.03 19.429 142.03 20.7984Z" fill="#F0C080"/>
<path d="M100.087 67.9217V66.9406H106.875V67.9217L104.95 68.1669C104.577 68.2136 104.356 68.3188 104.286 68.4823C104.216 68.6224 104.181 69.0896 104.181 69.8838V90.7668H102.257L89.4169 69.9889V87.8236C89.4169 88.6178 89.4519 89.0966 89.5219 89.2601C89.5918 89.4003 89.8134 89.4937 90.1866 89.5405L92.1108 89.7857V90.7668H85.3236V89.7857L87.2478 89.5405C87.621 89.4937 87.8426 89.4003 87.9125 89.2601C87.9825 89.0966 88.0175 88.6178 88.0175 87.8236V69.8838C88.0175 69.0896 87.9825 68.6224 87.9125 68.4823C87.8426 68.3188 87.621 68.2136 87.2478 68.1669L85.3236 67.9217V66.9406H92.3557L102.781 83.724V69.8838C102.781 69.0896 102.746 68.6224 102.676 68.4823C102.606 68.3188 102.385 68.2136 102.012 68.1669L100.087 67.9217Z" fill="#182D09"/>
<path d="M126.143 89.8908C125.77 90.2412 125.315 90.5332 124.779 90.7668C124.266 91.0004 123.636 91.1172 122.889 91.1172C121.933 91.1172 121.129 90.907 120.475 90.4865C119.846 90.066 119.426 89.4704 119.216 88.6995C118.446 89.5405 117.595 90.1595 116.662 90.5566C115.752 90.9303 114.82 91.1172 113.863 91.1172C112.254 91.1172 111.053 90.6734 110.26 89.7857C109.467 88.8747 109.07 87.7418 109.07 86.387C109.07 85.0088 109.572 83.8992 110.575 83.0583C111.578 82.194 113.35 81.7619 115.892 81.7619H119.076V78.9238C119.076 76.985 118.82 75.6652 118.306 74.9644C117.817 74.2403 117.129 73.8782 116.242 73.8782C115.659 73.8782 115.123 74.03 114.633 74.3337C114.143 74.614 113.793 75.1513 113.583 75.9455C113.397 76.7163 113.432 77.8376 113.688 79.3092L109.84 78.7486C109.653 77.674 109.77 76.6813 110.19 75.7703C110.633 74.8359 111.368 74.0884 112.394 73.5278C113.42 72.9438 114.726 72.6519 116.312 72.6519C118.108 72.6519 119.496 72.9438 120.475 73.5278C121.455 74.1118 122.131 74.8827 122.505 75.8404C122.901 76.7981 123.099 77.8259 123.099 78.9238V87.0177C123.099 88.209 123.204 88.9565 123.414 89.2601C123.624 89.5638 123.857 89.7156 124.114 89.7156C124.534 89.7156 125 89.4704 125.513 88.9798L126.143 89.8908ZM115.403 89.2601C116.009 89.2601 116.604 89.1083 117.187 88.8046C117.793 88.4776 118.423 87.882 119.076 87.0177V82.9882H116.452C115.309 82.9882 114.481 83.2569 113.968 83.7941C113.455 84.3314 113.199 85.1723 113.199 86.3169C113.199 87.2513 113.385 87.9754 113.758 88.4893C114.131 89.0032 114.68 89.2601 115.403 89.2601Z" fill="#182D09"/>
<path d="M131.814 69.9889C131.091 69.9889 130.508 69.767 130.065 69.3232C129.621 68.856 129.4 68.2604 129.4 67.5362C129.4 66.8121 129.621 66.2281 130.065 65.7843C130.508 65.3405 131.091 65.1186 131.814 65.1186C132.513 65.1186 133.097 65.3405 133.563 65.7843C134.03 66.2281 134.263 66.8121 134.263 67.5362C134.263 68.2604 134.03 68.856 133.563 69.3232C133.097 69.767 132.513 69.9889 131.814 69.9889ZM127.126 73.9833V73.0022H133.843V87.8236C133.843 88.6178 133.878 89.0966 133.948 89.2601C134.018 89.4003 134.239 89.4937 134.613 89.5405L136.537 89.7857V90.7668H127.126V89.7857L129.05 89.5405C129.423 89.4937 129.645 89.4003 129.715 89.2601C129.785 89.0966 129.82 88.6178 129.82 87.8236V75.9455C129.82 75.1513 129.785 74.6841 129.715 74.5439C129.645 74.3804 129.423 74.2753 129.05 74.2286L127.126 73.9833Z" fill="#182D09"/>
<path d="M142.331 69.9889C141.608 69.9889 141.025 69.767 140.582 69.3232C140.139 68.856 139.917 68.2604 139.917 67.5362C139.917 66.8121 140.139 66.2281 140.582 65.7843C141.025 65.3405 141.608 65.1186 142.331 65.1186C143.031 65.1186 143.614 65.3405 144.08 65.7843C144.547 66.2281 144.78 66.8121 144.78 67.5362C144.78 68.2604 144.547 68.856 144.08 69.3232C143.614 69.767 143.031 69.9889 142.331 69.9889ZM137.643 73.9833V73.0022H144.36V91.9581C144.36 93.1261 144.162 94.2123 143.765 95.2167C143.369 96.2211 142.728 97.027 141.841 97.6344C140.955 98.2651 139.777 98.5804 138.308 98.5804C137.025 98.5804 135.929 98.2534 135.019 97.5993C134.109 96.9453 133.55 95.8357 133.34 94.2707L135.509 93.6049C135.625 95.0999 135.905 96.0927 136.348 96.5832C136.792 97.0971 137.305 97.3541 137.888 97.3541C138.658 97.3541 139.252 97.0154 139.672 96.3379C140.115 95.6605 140.337 94.4342 140.337 92.6589V75.9455C140.337 75.1513 140.302 74.6841 140.232 74.5439C140.162 74.3804 139.94 74.2753 139.567 74.2286L137.643 73.9833Z" fill="#182D09"/>
<path d="M165.98 89.8908C165.607 90.2412 165.152 90.5332 164.616 90.7668C164.103 91.0004 163.473 91.1172 162.726 91.1172C161.77 91.1172 160.965 90.907 160.312 90.4865C159.683 90.066 159.263 89.4704 159.053 88.6995C158.283 89.5405 157.432 90.1595 156.499 90.5566C155.589 90.9303 154.656 91.1172 153.7 91.1172C152.091 91.1172 150.89 90.6734 150.097 89.7857C149.304 88.8747 148.907 87.7418 148.907 86.387C148.907 85.0088 149.409 83.8992 150.412 83.0583C151.414 82.194 153.187 81.7619 155.729 81.7619H158.913V78.9238C158.913 76.985 158.656 75.6652 158.143 74.9644C157.654 74.2403 156.965 73.8782 156.079 73.8782C155.496 73.8782 154.96 74.03 154.47 74.3337C153.98 74.614 153.63 75.1513 153.42 75.9455C153.234 76.7163 153.269 77.8376 153.525 79.3092L149.677 78.7486C149.49 77.674 149.607 76.6813 150.027 75.7703C150.47 74.8359 151.205 74.0884 152.231 73.5278C153.257 72.9438 154.563 72.6519 156.149 72.6519C157.945 72.6519 159.333 72.9438 160.312 73.5278C161.292 74.1118 161.968 74.8827 162.342 75.8404C162.738 76.7981 162.936 77.8259 162.936 78.9238V87.0177C162.936 88.209 163.041 88.9565 163.251 89.2601C163.461 89.5638 163.694 89.7156 163.951 89.7156C164.371 89.7156 164.837 89.4704 165.35 88.9798L165.98 89.8908ZM155.24 89.2601C155.846 89.2601 156.441 89.1083 157.024 88.8046C157.63 88.4776 158.26 87.882 158.913 87.0177V82.9882H156.289C155.146 82.9882 154.318 83.2569 153.805 83.7941C153.292 84.3314 153.035 85.1723 153.035 86.3169C153.035 87.2513 153.222 87.9754 153.595 88.4893C153.968 89.0032 154.516 89.2601 155.24 89.2601Z" fill="#182D09"/>
<path d="M113.389 113.758H114.042V117.776H102.497V117.122L103.78 116.958C104.029 116.927 104.176 116.865 104.223 116.771C104.27 116.662 104.293 116.343 104.293 115.814V103.854C104.293 103.324 104.27 103.013 104.223 102.919C104.176 102.81 104.029 102.74 103.78 102.709L102.497 102.546V101.892H113.809V105.909H113.156L112.41 103.316C112.363 103.13 112.309 102.997 112.246 102.919C112.2 102.826 112.099 102.771 111.943 102.756C111.788 102.725 111.523 102.709 111.15 102.709H107.092V109.343H109.751C110.124 109.343 110.388 109.335 110.544 109.32C110.699 109.289 110.8 109.234 110.847 109.156C110.909 109.063 110.964 108.923 111.01 108.736L111.523 106.844H112.176V112.66H111.523L111.01 110.768C110.964 110.581 110.909 110.449 110.847 110.371C110.8 110.277 110.699 110.223 110.544 110.207C110.388 110.176 110.124 110.161 109.751 110.161H107.092V116.958H111.383C111.757 116.958 112.021 116.95 112.176 116.935C112.332 116.904 112.433 116.849 112.48 116.771C112.542 116.678 112.596 116.538 112.643 116.351L113.389 113.758Z" fill="#182D09"/>
<path d="M127.979 117.192C127.73 117.425 127.427 117.62 127.069 117.776C126.727 117.931 126.308 118.009 125.81 118.009C125.172 118.009 124.636 117.869 124.201 117.589C123.781 117.309 123.501 116.911 123.361 116.398C122.848 116.958 122.28 117.371 121.658 117.636C121.052 117.885 120.43 118.009 119.792 118.009C118.72 118.009 117.919 117.713 117.39 117.122C116.861 116.514 116.597 115.759 116.597 114.856C116.597 113.937 116.931 113.197 117.6 112.637C118.269 112.061 119.45 111.772 121.145 111.772H123.268V109.88C123.268 108.588 123.097 107.708 122.755 107.241C122.428 106.758 121.969 106.517 121.378 106.517C120.99 106.517 120.632 106.618 120.306 106.82C119.979 107.007 119.746 107.365 119.606 107.895C119.481 108.409 119.505 109.156 119.676 110.137L117.11 109.764C116.986 109.047 117.064 108.385 117.343 107.778C117.639 107.155 118.129 106.657 118.813 106.283C119.497 105.894 120.368 105.699 121.425 105.699C122.622 105.699 123.548 105.894 124.201 106.283C124.854 106.672 125.305 107.186 125.553 107.825C125.818 108.463 125.95 109.148 125.95 109.88V115.276C125.95 116.07 126.02 116.569 126.16 116.771C126.3 116.974 126.455 117.075 126.626 117.075C126.906 117.075 127.217 116.911 127.559 116.584L127.979 117.192ZM120.819 116.771C121.223 116.771 121.619 116.67 122.008 116.468C122.412 116.25 122.832 115.852 123.268 115.276V112.59H121.518C120.757 112.59 120.205 112.769 119.862 113.127C119.52 113.485 119.349 114.046 119.349 114.809C119.349 115.432 119.474 115.915 119.722 116.257C119.971 116.6 120.337 116.771 120.819 116.771Z" fill="#182D09"/>
<path d="M136.937 115.346C136.735 116.296 136.346 116.982 135.771 117.402C135.211 117.807 134.527 118.009 133.719 118.009C132.895 118.009 132.218 117.83 131.689 117.472C131.161 117.098 130.772 116.608 130.523 116C130.275 115.393 130.15 114.747 130.15 114.062V107.895C130.15 107.365 130.127 107.054 130.08 106.96C130.034 106.851 129.886 106.781 129.637 106.75L128.354 106.587V105.933H130.15V103.223L132.832 102.686V105.933H136.564V106.75H132.832V114.529C132.832 115.525 132.957 116.218 133.206 116.608C133.454 116.981 133.773 117.168 134.162 117.168C134.566 117.168 134.877 117.013 135.095 116.701C135.328 116.39 135.476 115.821 135.538 114.996L136.937 115.346Z" fill="#182D09"/>
<path d="M143.154 113.361L141.544 112.987C140.503 112.738 139.725 112.294 139.212 111.656C138.715 111.002 138.466 110.231 138.466 109.343C138.466 108.689 138.606 108.089 138.886 107.544C139.181 106.984 139.64 106.54 140.262 106.213C140.884 105.87 141.692 105.699 142.687 105.699C143.76 105.699 144.631 105.87 145.3 106.213C145.968 106.556 146.442 107.007 146.722 107.568C147.002 108.128 147.088 108.728 146.979 109.366L144.413 109.834C144.631 108.775 144.569 107.957 144.227 107.381C143.9 106.805 143.348 106.517 142.571 106.517C142.026 106.517 141.576 106.68 141.218 107.007C140.86 107.319 140.681 107.77 140.681 108.362C140.681 108.907 140.837 109.39 141.148 109.81C141.459 110.215 141.918 110.488 142.524 110.628L144.133 111.002C145.284 111.266 146.116 111.687 146.629 112.263C147.142 112.824 147.399 113.524 147.399 114.365C147.399 115.409 147.01 116.281 146.233 116.981C145.471 117.667 144.328 118.009 142.804 118.009C142.275 118.009 141.692 117.931 141.055 117.776C140.433 117.604 139.857 117.301 139.329 116.865C138.816 116.429 138.442 115.806 138.209 114.996L139.725 114.389C139.834 115.416 140.184 116.141 140.775 116.561C141.381 116.981 142.058 117.192 142.804 117.192C143.504 117.192 144.071 117.036 144.507 116.725C144.957 116.398 145.183 115.93 145.183 115.323C145.183 114.903 145.035 114.521 144.74 114.178C144.46 113.82 143.931 113.548 143.154 113.361Z" fill="#182D09"/>
<defs>
<linearGradient id="paint0_linear_462_394" x1="0" y1="61.5" x2="250" y2="61.5" gradientUnits="userSpaceOnUse">
<stop offset="0.25" stop-color="#3D6B1F"/>
<stop offset="0.5" stop-color="#F5F5DC"/>
<stop offset="0.740385" stop-color="#3D6B1F"/>
</linearGradient>
</defs>
</svg>
